<svg width="45" height="45" viewBox="0 0 45 45" fill="none" xmlns="http://www.w3.org/2000/svg">
<circle cx="22.5" cy="22.5" r="22.5" fill="#1D4745"/>
<path d="M37.8125 18.1234H37.0833V16.6652C37.0833 12.6451 33.8123 9.37445 29.7917 9.37445H23.9583V6.45815C23.9583 5.65325 23.3065 5 22.5 5C21.6935 5 21.0417 5.65325 21.0417 6.45815V9.37445H15.2083C11.1877 9.37445 7.91667 12.6451 7.91667 16.6652V18.1234H7.1875C5.98146 18.1234 5 19.1047 5 20.3106V24.685C5 25.8909 5.98146 26.8723 7.1875 26.8723H7.91667V28.3304C7.91667 32.3505 11.1877 35.6212 15.2083 35.6212H26.4331L32.2125 39.4736C32.7375 39.8236 33.3427 40 33.9494 40C34.4569 40 34.9644 39.8775 35.4296 39.6282C36.449 39.0814 37.0833 38.0242 37.0833 36.8664V26.8708H37.8125C39.0185 26.8708 40 25.8895 40 24.6836V20.3091C40 19.1032 39.0185 18.1219 37.8125 18.1219V18.1234ZM17.3958 16.6652C18.6033 16.6652 19.5833 17.6451 19.5833 18.8524C19.5833 20.0598 18.6033 21.0397 17.3958 21.0397C16.1883 21.0397 15.2083 20.0598 15.2083 18.8524C15.2083 17.6451 16.1883 16.6652 17.3958 16.6652ZM29.1077 27.7078C27.5954 28.657 25.2198 29.7886 22.5 29.7886C19.7802 29.7886 17.4046 28.657 15.8923 27.7078C15.2098 27.2805 15.0042 26.3794 15.4329 25.6985C15.8617 25.0175 16.7615 24.8104 17.4425 25.2377C18.631 25.9843 20.4744 26.8723 22.5015 26.8723C24.5285 26.8723 26.3704 25.9843 27.5604 25.2377C28.24 24.809 29.1427 25.016 29.57 25.6985C29.9987 26.3809 29.7917 27.2805 29.1106 27.7078H29.1077ZM27.6042 21.0397C26.3967 21.0397 25.4167 20.0598 25.4167 18.8524C25.4167 17.6451 26.3967 16.6652 27.6042 16.6652C28.8117 16.6652 29.7917 17.6451 29.7917 18.8524C29.7917 20.0598 28.8117 21.0397 27.6042 21.0397Z" fill="white"/>
</svg>
