<svg width="45" height="45" viewBox="0 0 45 45" fill="none" xmlns="http://www.w3.org/2000/svg">
<path fill-rule="evenodd" clip-rule="evenodd" d="M45 22.5C45.0076 28.295 42.7718 33.8679 38.7611 38.0507C36.6702 40.2424 34.1573 41.9881 31.3736 43.1824C28.59 44.3767 25.5933 44.995 22.5643 45H22.5H22.4357C19.4067 44.995 16.41 44.3767 13.6264 43.1824C10.8427 41.9881 8.32974 40.2424 6.23893 38.0507C3.69626 35.3919 1.84434 32.1502 0.845377 28.6096C-0.153586 25.0689 -0.269112 21.3373 0.508918 17.7416C1.28695 14.1459 2.9348 10.7958 5.30812 7.98484C7.68145 5.17386 10.7078 2.98771 14.1222 1.61789C17.5366 0.248064 21.2348 -0.263639 24.8928 0.127601C28.5508 0.518841 32.0571 1.80109 35.1046 3.86202C38.152 5.92296 40.6476 8.6997 42.3728 11.949C44.0979 15.1984 45 18.8211 45 22.5ZM36.1382 33.75C34.4811 31.7374 32.3986 30.1171 30.0404 29.0055C27.6822 27.894 25.107 27.3188 22.5 27.3215C19.893 27.3188 17.3178 27.894 14.9596 29.0055C12.6014 30.1171 10.5189 31.7374 8.86178 33.75C10.5189 35.7626 12.6014 37.383 14.9596 38.4945C17.3178 39.6061 19.893 40.1812 22.5 40.1786C25.107 40.1812 27.6822 39.6061 30.0404 38.4945C32.3986 37.383 34.4811 35.7626 36.1382 33.75ZM22.5 24.1072C23.5553 24.1072 24.6002 23.8993 25.5751 23.4955C26.5501 23.0917 27.4359 22.4998 28.1821 21.7536C28.9283 21.0074 29.5202 20.1216 29.924 19.1466C30.3279 18.1717 30.5357 17.1268 30.5357 16.0715C30.5357 15.0162 30.3279 13.9713 29.924 12.9964C29.5202 12.0214 28.9283 11.1356 28.1821 10.3894C27.4359 9.64321 26.5501 9.05131 25.5751 8.64747C24.6002 8.24364 23.5553 8.03579 22.5 8.03579C20.3688 8.03579 18.3249 8.88241 16.8179 10.3894C15.3109 11.8964 14.4643 13.9403 14.4643 16.0715C14.4643 18.2027 15.3109 20.2466 16.8179 21.7536C18.3249 23.2606 20.3688 24.1072 22.5 24.1072Z" fill="#1D4745"/>
</svg>
