<svg width="88" height="88" viewBox="0 0 88 88" fill="none" xmlns="http://www.w3.org/2000/svg">
<path d="M44 86C34.5354 75.5798 21.7 68.8302 7.75087 66.9382C6.16315 66.7626 4.69679 66.005 3.63478 64.8117C2.57278 63.6184 1.99043 62.074 2.00012 60.4766V8.46064C2.00026 7.53573 2.19895 6.62163 2.58277 5.78013C2.96659 4.93863 3.52658 4.18933 4.22491 3.58288C4.92323 2.97643 5.74361 2.52697 6.63058 2.26487C7.51756 2.00278 8.45047 1.93415 9.36625 2.06364C22.7047 4.27743 34.9068 10.9249 44 20.9316V86Z" stroke="#1D4745" stroke-width="3" stroke-linecap="round" stroke-linejoin="round"/>
<path d="M43.998 86C53.4626 75.5798 66.2981 68.8302 80.2472 66.9382C81.8349 66.7626 83.3013 66.005 84.3633 64.8117C85.4253 63.6184 86.0076 62.074 85.9979 60.4766V8.46064C85.9978 7.53573 85.7991 6.62163 85.4153 5.78013C85.0315 4.93863 84.4715 4.18933 83.7731 3.58288C83.0748 2.97643 82.2544 2.52697 81.3675 2.26487C80.4805 2.00278 79.5476 1.93415 78.6318 2.06364C65.2933 4.27743 53.0912 10.9249 43.998 20.9316V86Z" stroke="#1D4745" stroke-width="3" stroke-linecap="round" stroke-linejoin="round"/>
</svg>
