<svg width="175" height="47" viewBox="0 0 175 47" fill="none" xmlns="http://www.w3.org/2000/svg">
<path d="M60.784 17L68.272 0.199999H72.112L79.624 17H75.544L69.4 2.168H70.936L64.768 17H60.784ZM64.528 13.4L65.56 10.448H74.2L75.256 13.4H64.528ZM81.367 17V0.199999H85.255V17H81.367ZM66.472 47V33.368H61.096V30.2H75.736V33.368H70.36V47H66.472ZM74.7762 47L82.2642 30.2H86.1042L93.6162 47H89.5362L83.3922 32.168H84.9282L78.7602 47H74.7762ZM78.5202 43.4L79.5522 40.448H88.1922L89.2482 43.4H78.5202ZM111.062 47V30.2H118.334C119.838 30.2 121.134 30.448 122.222 30.944C123.31 31.424 124.15 32.12 124.742 33.032C125.334 33.944 125.63 35.032 125.63 36.296C125.63 37.544 125.334 38.624 124.742 39.536C124.15 40.448 123.31 41.152 122.222 41.648C121.134 42.128 119.838 42.368 118.334 42.368H113.222L114.95 40.616V47H111.062ZM114.95 41.048L113.222 39.2H118.118C119.318 39.2 120.214 38.944 120.806 38.432C121.398 37.92 121.694 37.208 121.694 36.296C121.694 35.368 121.398 34.648 120.806 34.136C120.214 33.624 119.318 33.368 118.118 33.368H113.222L114.95 31.52V41.048ZM131.982 36.968H140.07V39.992H131.982V36.968ZM132.27 43.88H141.414V47H128.406V30.2H141.102V33.32H132.27V43.88ZM144.508 47V30.2H151.78C153.284 30.2 154.58 30.448 155.668 30.944C156.756 31.424 157.596 32.12 158.188 33.032C158.78 33.944 159.076 35.032 159.076 36.296C159.076 37.544 158.78 38.624 158.188 39.536C157.596 40.432 156.756 41.12 155.668 41.6C154.58 42.08 153.284 42.32 151.78 42.32H146.668L148.396 40.616V47H144.508ZM155.188 47L150.988 40.904H155.14L159.388 47H155.188ZM148.396 41.048L146.668 39.224H151.564C152.764 39.224 153.66 38.968 154.252 38.456C154.844 37.928 155.14 37.208 155.14 36.296C155.14 35.368 154.844 34.648 154.252 34.136C153.66 33.624 152.764 33.368 151.564 33.368H146.668L148.396 31.52V41.048ZM165.402 47V33.368H160.026V30.2H174.666V33.368H169.29V47H165.402Z" fill="white"/>
<path d="M92.5486 47L99.7726 37.04V39.872L92.8606 30.2H97.2766L102.053 36.944L100.205 36.968L104.909 30.2H109.133L102.269 39.704V36.92L109.541 47H105.053L100.109 39.872H101.885L97.0126 47H92.5486Z" fill="#FFB400"/>
<path fill-rule="evenodd" clip-rule="evenodd" d="M4.19106 0.0405591C3.73097 0.100572 2.93363 0.344567 2.54866 0.543065C1.31364 1.17981 0.462714 2.20902 0.0954903 3.51016C0.00569758 3.82818 0 4.75961 0 19.0638C0 33.6916 0.00388969 34.2944 0.101352 34.6728C0.449895 36.0269 1.39362 37.1188 2.73925 37.7248C3.71081 38.1623 3.72949 38.1643 6.86051 38.1835L9.61215 38.2003L9.62716 42.0052L9.64217 45.81L9.80669 46.1029C9.9992 46.4456 10.4253 46.7888 10.7781 46.8851C11.0985 46.9726 11.7311 46.9573 11.9856 46.8558C12.0993 46.8105 15.0084 44.8489 18.4502 42.4967L24.7081 38.2202L36.076 38.1952L47.4439 38.1703L47.8821 38.0585C49.6814 37.5998 51.0264 36.3239 51.4514 34.6728C51.5488 34.2944 51.5527 33.6916 51.5527 19.0638C51.5527 4.75961 51.547 3.82818 51.4572 3.51016C51.1227 2.32491 50.4138 1.39507 49.3523 0.749595C48.8679 0.454966 48.4467 0.282508 47.8017 0.11459L47.3891 0.00718508L25.9681 0.0006001C12.9831 -0.00334093 4.40691 0.0123733 4.19106 0.0405591ZM4.44953 3.19667C3.98233 3.34873 3.59943 3.71494 3.47787 4.12611C3.44236 4.24623 3.42834 9.46665 3.43749 19.1947C3.45129 33.8824 3.45288 34.0822 3.55922 34.2775C3.68682 34.5119 4.00375 34.8118 4.25663 34.9375C4.42433 35.0209 4.70412 35.0293 8.0808 35.0524L11.724 35.0773L12.0253 35.2077C12.4086 35.3735 12.7136 35.6512 12.8957 36.0002L13.0388 36.2746L13.0662 39.2583L13.0936 42.2419L18.1864 38.7645C20.9874 36.8518 23.3911 35.2398 23.5279 35.1821L23.7767 35.0773L35.4459 35.0524C46.5579 35.0286 47.1238 35.0232 47.2961 34.9375C47.549 34.8118 47.8659 34.5119 47.9935 34.2775C48.1 34.082 48.1013 33.895 48.1013 19.0887V4.09787L47.9801 3.89164C47.8259 3.62904 47.5752 3.40076 47.2868 3.26033L47.0604 3.15003L25.8585 3.1396C8.16045 3.13092 4.62249 3.14035 4.44953 3.19667Z" fill="#FFB400"/>
<path d="M25.9637 10.1287C24.1218 7.82549 21.2824 5.52229 14.2454 5.35328C13.7832 5.34219 13.4062 5.71104 13.4062 6.16527C13.4062 9.53492 13.4062 22.2919 13.4062 26.0648C13.4062 26.519 13.7832 26.8758 14.2453 26.8906C21.2824 27.1166 24.1218 30.1818 25.9637 32.485M25.9637 10.1287C27.8056 7.82549 30.6449 5.52229 37.6819 5.35328C38.1442 5.34219 38.5211 5.70275 38.5211 6.15698C38.5211 9.92369 38.5211 22.2969 38.5211 26.0637C38.5211 26.5178 38.1442 26.8758 37.6821 26.8906C30.6451 27.1166 27.8056 30.1818 25.9637 32.485M25.9637 10.1287V32.485" stroke="white" stroke-linejoin="round"/>
<path d="M38.0782 8.67944H41.87C42.3323 8.67944 42.7072 9.04768 42.7072 9.50192V30.9504C42.7072 31.616 41.909 32.0581 41.2899 31.7879C39.9586 31.2067 37.737 30.4967 34.828 30.4967C29.9035 30.4967 25.9639 33.3537 25.9639 33.3537C25.9639 33.3537 22.0244 30.4967 17.0999 30.4967C14.1909 30.4967 11.9692 31.2067 10.638 31.7879C10.0188 32.0581 9.2207 31.616 9.2207 30.9504V9.50192C9.2207 9.04768 9.59552 8.67944 10.0579 8.67944H13.8497" stroke="white" stroke-linejoin="round"/>
<path d="M33.1136 12.3765V16.6903C34.2537 17.4824 34.9907 18.1899 35.4117 18.7965C35.8327 19.4199 36.0258 20.0265 36.0432 20.6504C36.0786 21.6614 35.2714 23.5994 33.1136 23.9364V25.9418H31.868V23.9704C29.9381 23.7342 28.9912 22.2346 28.5 21.3751L29.6053 20.7517C30.2721 21.9483 31.026 22.5883 31.868 22.7571V17.3816C30.8857 16.6569 30.2368 16.1176 29.9909 15.7973C29.5345 15.2074 29.3066 14.5674 29.3066 13.8933C29.3066 12.7982 30.0257 11.2813 31.868 11.0284V9.88257H33.1136V11.0451C34.4995 11.298 35.3062 12.3425 35.8327 13.0165L34.7802 13.7747C34.394 13.2862 33.8854 12.6294 33.1136 12.3765ZM31.868 15.7806V12.3263C30.9205 12.5625 30.6398 13.3881 30.6398 13.8432C30.6398 14.6186 31.1484 15.1578 31.4644 15.4441C31.5172 15.5115 31.6749 15.6296 31.868 15.7812V15.7806ZM33.1136 18.3419V22.6725C34.2537 22.3015 34.6573 21.2737 34.6399 20.6838C34.6399 20.2627 34.4995 19.875 34.2189 19.4705C33.973 19.1502 33.6048 18.7631 33.1136 18.3419Z" fill="white"/>
</svg>
