<svg width="160" height="160" viewBox="0 0 160 160" fill="none" xmlns="http://www.w3.org/2000/svg">
<path d="M0 32C0 14.3269 14.3269 0 32 0H128C145.673 0 160 14.3269 160 32V128C160 145.673 145.673 160 128 160H32C14.3269 160 0 145.673 0 128V32Z" fill="#F5F6F1"/>
<path d="M87.2577 51.0389H82.5547V91.9135H87.2577V51.0389Z" fill="black" stroke="black" stroke-linecap="round" stroke-linejoin="round"/>
<path d="M49.9668 65.8406V68.7153H68.7113V65.8406H49.9668Z" fill="black" stroke="black" stroke-linecap="round" stroke-linejoin="round"/>
<path d="M51.8923 55.9174H49.0176V67.4196H51.8923V55.9174Z" fill="black" stroke="black" stroke-linecap="round" stroke-linejoin="round"/>
<path d="M53.0898 67.4688C53.0898 67.8146 53.0217 68.1571 52.8892 68.4766C52.7568 68.7961 52.5627 69.0863 52.318 69.3307C52.0733 69.5751 51.7828 69.7689 51.4632 69.901C51.1435 70.033 50.801 70.1008 50.4552 70.1004C50.369 70.1004 50.2828 70.1004 50.1997 70.1004C49.7203 70.053 49.2631 69.8751 48.8777 69.586C48.4924 69.2969 48.1937 68.9077 48.0141 68.4606C47.8346 68.0136 47.781 67.526 47.8592 67.0506C47.9374 66.5753 48.1445 66.1305 48.4578 65.7646C48.7712 65.3987 49.1789 65.1258 49.6365 64.9754C50.0942 64.8251 50.5843 64.8031 51.0536 64.9118C51.5229 65.0205 51.9534 65.2559 52.2983 65.5922C52.6432 65.9285 52.8893 66.3529 53.0098 66.8193C53.0624 67.0318 53.0892 67.2499 53.0898 67.4688Z" fill="white" stroke="black" stroke-linecap="round" stroke-linejoin="round"/>
<path d="M53.2843 57.6903C53.2827 58.3882 53.0045 59.0571 52.5107 59.5504C52.0168 60.0436 51.3476 60.3211 50.6497 60.3219C50.5635 60.3219 50.4773 60.3219 50.3911 60.3219C49.9115 60.2759 49.4536 60.0993 49.0674 59.8112C48.6812 59.5232 48.3813 59.1347 48.2005 58.6881C48.0196 58.2415 47.9647 57.7539 48.0417 57.2783C48.1186 56.8026 48.3246 56.3572 48.6371 55.9905C48.9496 55.6237 49.3566 55.3497 49.814 55.1982C50.2714 55.0467 50.7616 55.0235 51.2312 55.1311C51.7009 55.2388 52.132 55.4732 52.4777 55.8088C52.8234 56.1444 53.0705 56.5684 53.192 57.0347C53.2511 57.2483 53.2822 57.4686 53.2843 57.6903Z" fill="white" stroke="black" stroke-linecap="round" stroke-linejoin="round"/>
<path d="M57.9999 50.5494L54.168 52.6127L54.9618 54.087L58.7938 52.0237L57.9999 50.5494Z" fill="black" stroke="black" stroke-linecap="round" stroke-linejoin="round"/>
<path d="M59.4312 52.1839L57.5444 53.1996L56.3379 50.962L58.2277 49.9432C58.376 49.8619 58.5391 49.8111 58.7073 49.7937C58.8755 49.7764 59.0455 49.7929 59.2072 49.8422C59.369 49.8915 59.5192 49.9727 59.6491 50.081C59.779 50.1892 59.886 50.3224 59.9637 50.4726C60.1181 50.7705 60.1488 51.1173 60.0491 51.4377C59.9494 51.7581 59.7274 52.0262 59.4312 52.1839Z" fill="white" stroke="black" stroke-linecap="round" stroke-linejoin="round"/>
<path d="M51.1602 42.6947L51.0248 50.5003L49.3535 50.4726L49.4859 42.667L51.1602 42.6947Z" fill="black" stroke="black" stroke-linecap="round" stroke-linejoin="round"/>
<path d="M51.6114 42.2238L51.5775 44.3783L49.0352 44.3168L49.069 42.1622C49.0718 41.9953 49.1075 41.8305 49.174 41.6774C49.2405 41.5242 49.3365 41.3857 49.4565 41.2696C49.5766 41.1536 49.7183 41.0623 49.8736 41.0011C50.0289 40.9398 50.1948 40.9097 50.3617 40.9126C50.5304 40.915 50.6969 40.9509 50.8515 41.0184C51.006 41.0859 51.1456 41.1836 51.262 41.3057C51.3783 41.4278 51.4692 41.5719 51.5292 41.7295C51.5892 41.8872 51.6171 42.0552 51.6114 42.2238Z" fill="white" stroke="black" stroke-linecap="round" stroke-linejoin="round"/>
<path d="M57.415 45.5263L53.743 52.4147L52.2656 51.6298L55.9345 44.7415L57.415 45.5263Z" fill="black" stroke="black" stroke-linecap="round" stroke-linejoin="round"/>
<path d="M58.0276 45.314L57.0211 47.2069L54.7773 46.0157L55.7807 44.1197C55.9395 43.823 56.2092 43.6011 56.531 43.5025C56.8527 43.4039 57.2005 43.4366 57.4982 43.5934C57.7963 43.7516 58.0195 44.0217 58.1187 44.3442C58.218 44.6668 58.1852 45.0155 58.0276 45.314Z" fill="white" stroke="black" stroke-linecap="round" stroke-linejoin="round"/>
<path d="M45.2246 45.4956L48.8627 52.4024L47.3822 53.1842L43.7441 46.2774L45.2246 45.4956Z" fill="black" stroke="black" stroke-linecap="round" stroke-linejoin="round"/>
<path d="M48.6387 50.5034C48.5848 50.1839 48.4373 49.8876 48.2149 49.652C47.9925 49.4164 47.7052 49.2521 47.3894 49.1799C47.0735 49.1076 46.7434 49.1307 46.4407 49.2461C46.1379 49.3616 45.8763 49.5642 45.6888 49.8284C45.5013 50.0927 45.3964 50.4066 45.3874 50.7304C45.3783 51.0543 45.4656 51.3735 45.6381 51.6478C45.8105 51.9221 46.0605 52.139 46.3563 52.2711C46.6521 52.4033 46.9805 52.4447 47.2999 52.3901C47.7274 52.3171 48.1085 52.0774 48.3595 51.7237C48.6106 51.3699 48.711 50.9311 48.6387 50.5034Z" fill="white" stroke="black" stroke-linecap="round" stroke-linejoin="round"/>
<path d="M50.239 50.7189C51.1433 50.7189 51.8765 49.9858 51.8765 49.0814C51.8765 48.1771 51.1433 47.444 50.239 47.444C49.3347 47.444 48.6016 48.1771 48.6016 49.0814C48.6016 49.9858 49.3347 50.7189 50.239 50.7189Z" fill="white" stroke="black" stroke-linecap="round" stroke-linejoin="round"/>
<path d="M55.584 50.0263C55.6332 49.7061 55.5864 49.3785 55.4495 49.0849C55.3125 48.7913 55.0915 48.545 54.8145 48.377C54.5375 48.2091 54.2169 48.127 53.8933 48.1413C53.5696 48.1556 53.2575 48.2656 52.9964 48.4574C52.7353 48.6491 52.5369 48.914 52.4264 49.2185C52.3159 49.523 52.2981 49.8535 52.3755 50.1681C52.4528 50.4827 52.6217 50.7672 52.8608 50.9858C53.0999 51.2044 53.3985 51.3471 53.7188 51.3959C53.9312 51.4287 54.148 51.4193 54.3568 51.3682C54.5656 51.3171 54.7622 51.2253 54.9355 51.098C55.1088 50.9708 55.2552 50.8107 55.3665 50.6267C55.4778 50.4428 55.5517 50.2388 55.584 50.0263Z" fill="white" stroke="black" stroke-linecap="round" stroke-linejoin="round"/>
<path d="M45.3952 44.8646L46.3986 46.7606L44.1517 47.9518L43.1483 46.0527C43.07 45.9053 43.0215 45.7438 43.0057 45.5775C42.9899 45.4113 43.0071 45.2436 43.0563 45.084C43.1055 44.9244 43.1857 44.7761 43.2923 44.6476C43.399 44.5191 43.53 44.413 43.6777 44.3352C43.9759 44.1786 44.3239 44.1464 44.6457 44.2456C44.9675 44.3448 45.237 44.5674 45.3952 44.8646Z" fill="white" stroke="black" stroke-linecap="round" stroke-linejoin="round"/>
<path d="M55.2698 53.6643C55.2698 54.8888 54.7834 56.0631 53.9176 56.9289C53.0517 57.7948 51.8774 58.2812 50.6529 58.2812C50.499 58.2812 50.3451 58.2812 50.2005 58.2627C49.3606 58.1795 48.5597 57.8676 47.8847 57.361C47.2097 56.8544 46.6864 56.1725 46.3718 55.3894C46.0572 54.6063 45.9633 53.7519 46.1003 52.9191C46.2372 52.0863 46.5998 51.3071 47.1487 50.6659C47.6975 50.0248 48.4116 49.5464 49.2133 49.2827C50.015 49.019 50.8737 48.9801 51.6959 49.1702C52.5182 49.3603 53.2726 49.7721 53.8772 50.361C54.4818 50.9498 54.9134 51.6931 55.1251 52.5101C55.2206 52.8874 55.2692 53.2751 55.2698 53.6643Z" fill="white" stroke="black" stroke-linecap="round" stroke-linejoin="round"/>
<path d="M55.2695 53.6644C55.2695 54.8888 54.783 56.0631 53.9172 56.929C53.0514 57.7948 51.8771 58.2812 50.6526 58.2812C50.4987 58.2812 50.3448 58.2812 50.2001 58.2628C50.0233 57.5796 50.0053 56.8651 50.1477 56.174C50.29 55.4828 50.5889 54.8335 51.0214 54.276C51.4539 53.7184 52.0084 53.2673 52.6423 52.9575C53.2763 52.6476 53.9729 52.4872 54.6785 52.4886C54.8293 52.4886 54.9863 52.4886 55.1309 52.5101C55.2243 52.8877 55.2708 53.2754 55.2695 53.6644Z" fill="white" stroke="black" stroke-linecap="round" stroke-linejoin="round"/>
<path d="M78.5159 67.5519C79.2998 64.2019 77.2195 60.8506 73.8694 60.0667C70.5194 59.2828 67.1681 61.3631 66.3842 64.7132C65.6003 68.0633 67.6806 71.4145 71.0307 72.1984C74.3807 72.9823 77.732 70.902 78.5159 67.5519Z" fill="white" stroke="black" stroke-linecap="round" stroke-linejoin="round"/>
<path d="M73.6094 68.9184C75.1485 68.2765 75.8758 66.5084 75.2339 64.9693C74.5919 63.4302 72.8239 62.703 71.2848 63.3449C69.7457 63.9868 69.0184 65.7548 69.6603 67.2939C70.3023 68.833 72.0703 69.5603 73.6094 68.9184Z" fill="black" stroke="black" stroke-linecap="round" stroke-linejoin="round"/>
<path d="M71.3776 92.4891H99.0173L99.4143 90.6177C99.5735 89.8702 99.4305 89.09 99.0164 88.4476C98.6024 87.8052 97.9509 87.3527 97.2044 87.1889C93.2862 86.3087 84.8035 85.9916 84.8035 85.9916C82.7597 86.0563 77.0718 86.2994 73.1536 87.192C72.4122 87.3613 71.7673 87.8156 71.3583 88.4567C70.9494 89.0978 70.8093 89.8741 70.9683 90.6177L71.3776 92.4891Z" fill="white" stroke="black" stroke-linecap="round" stroke-linejoin="round"/>
<path d="M91.8501 86.4472C88.3105 86.1209 84.814 85.9916 84.814 85.9916C83.5275 86.0317 80.7943 86.1455 77.9688 86.4472C78.7936 89.2635 81.5884 91.338 84.9094 91.338C88.2305 91.338 91.0252 89.2542 91.8501 86.4472Z" fill="#1D4745" fill-opacity="0.7" stroke="black" stroke-linecap="round" stroke-linejoin="round"/>
<path d="M113.779 79.2914L115.498 76.9874L100.475 65.7773L98.7558 68.0813L113.779 79.2914Z" fill="black" stroke="black" stroke-linecap="round" stroke-linejoin="round"/>
<path d="M106.303 86.093L108.607 87.8122L115.486 78.5937L113.182 76.8745L106.303 86.093Z" fill="black" stroke="black" stroke-linecap="round" stroke-linejoin="round"/>
<path d="M112.247 76.1177C112.454 75.8399 112.714 75.6057 113.012 75.4284C113.31 75.2511 113.64 75.1342 113.983 75.0845C114.326 75.0348 114.675 75.0531 115.011 75.1385C115.347 75.2239 115.663 75.3747 115.941 75.5822L116.141 75.7453C116.497 76.07 116.757 76.4861 116.893 76.9483C117.029 77.4105 117.035 77.9012 116.912 78.3669C116.788 78.8326 116.54 79.2556 116.193 79.5897C115.846 79.9239 115.414 80.1565 114.943 80.2623C114.473 80.3681 113.983 80.3429 113.527 80.1896C113.07 80.0362 112.664 79.7605 112.353 79.3926C112.042 79.0246 111.838 78.5784 111.763 78.1025C111.688 77.6266 111.744 77.1392 111.927 76.6933C112.01 76.489 112.117 76.2957 112.247 76.1177Z" fill="white" stroke="black" stroke-linecap="round" stroke-linejoin="round"/>
<path d="M106.236 83.4832C106.626 82.9037 107.231 82.5029 107.917 82.369C108.602 82.235 109.313 82.379 109.893 82.7691C109.964 82.8153 110.031 82.8676 110.099 82.9199C110.471 83.2266 110.751 83.6294 110.91 84.0844C111.068 84.5393 111.099 85.0291 110.999 85.5004C110.898 85.9717 110.671 86.4064 110.341 86.7573C110.01 87.1083 109.59 87.3619 109.126 87.4907C108.662 87.6195 108.171 87.6185 107.707 87.4878C107.243 87.3571 106.824 87.1017 106.496 86.7494C106.167 86.3972 105.941 85.9615 105.843 85.4898C105.744 85.0181 105.777 84.5285 105.938 84.0741C106.012 83.8655 106.112 83.667 106.236 83.4832Z" fill="white" stroke="black" stroke-linecap="round" stroke-linejoin="round"/>
<path d="M98.323 86.7806L102.654 87.206L102.818 85.5397L98.4867 85.1142L98.323 86.7806Z" fill="black" stroke="black" stroke-linecap="round" stroke-linejoin="round"/>
<path d="M98.0632 84.6373L100.199 84.8466L99.95 87.3767L97.8139 87.1674C97.4784 87.1347 97.1696 86.9701 96.9555 86.7097C96.7414 86.4494 96.6394 86.1147 96.672 85.7792C96.7054 85.4435 96.8707 85.1347 97.1315 84.9206C97.3923 84.7066 97.7274 84.6047 98.0632 84.6373Z" fill="white" stroke="black" stroke-linecap="round" stroke-linejoin="round"/>
<path d="M102.339 85.7146C102.677 85.2105 103.112 84.778 103.617 84.442C104.123 84.106 104.69 83.8729 105.286 83.7563C105.881 83.6397 106.494 83.6417 107.089 83.7622C107.684 83.8828 108.25 84.1195 108.753 84.4589C108.879 84.545 109 84.6343 109.116 84.7297C109.767 85.2675 110.258 85.9733 110.536 86.7706C110.813 87.5678 110.867 88.4259 110.691 89.2515C110.515 90.0771 110.116 90.8386 109.537 91.4533C108.958 92.0679 108.222 92.5122 107.409 92.7377C106.595 92.9632 105.736 92.9613 104.923 92.7323C104.111 92.5034 103.376 92.056 102.8 91.4388C102.224 90.8217 101.829 90.0585 101.656 89.2321C101.484 88.4058 101.541 87.5479 101.822 86.7519C101.949 86.3855 102.123 86.0369 102.339 85.7146Z" fill="white" stroke="black" stroke-linecap="round" stroke-linejoin="round"/>
<path d="M97.3652 90.51L103.09 86.2286L104.01 87.4567L98.2855 91.735L97.3652 90.51Z" fill="black" stroke="black" stroke-linecap="round" stroke-linejoin="round"/>
<path d="M96.7723 90.4454L98.3451 89.2542L99.7425 91.101L98.1697 92.2798C97.9227 92.4646 97.6125 92.5438 97.3072 92.4999C97.0018 92.4561 96.7264 92.2928 96.5415 92.0459C96.3642 91.8015 96.2891 91.4976 96.3322 91.1988C96.3753 90.9 96.5332 90.6297 96.7723 90.4454Z" fill="white" stroke="black" stroke-linecap="round" stroke-linejoin="round"/>
<path d="M104.757 87.549C104.829 87.2329 104.807 86.9024 104.691 86.5992C104.576 86.2961 104.373 86.0341 104.108 85.8464C103.844 85.6587 103.53 85.5538 103.205 85.545C102.881 85.5362 102.561 85.6239 102.287 85.797C102.013 85.9701 101.796 86.2207 101.664 86.5172C101.533 86.8136 101.492 87.1425 101.548 87.462C101.603 87.7816 101.752 88.0775 101.976 88.3122C102.2 88.5469 102.489 88.7098 102.805 88.7802C103.227 88.8741 103.669 88.7973 104.035 88.5667C104.4 88.3361 104.66 87.9703 104.757 87.549Z" fill="white" stroke="black" stroke-linecap="round" stroke-linejoin="round"/>
<path d="M107.793 94.8129L108.642 88.9402L109.901 89.1188L109.055 94.9914L107.793 94.8129Z" fill="black" stroke="black" stroke-linecap="round" stroke-linejoin="round"/>
<path d="M107.41 95.1238L107.641 93.5079L109.552 93.7818L109.321 95.3946C109.304 95.5204 109.261 95.6413 109.197 95.7507C109.132 95.86 109.047 95.9556 108.945 96.0319C108.844 96.1082 108.728 96.1638 108.605 96.1955C108.482 96.2271 108.354 96.2343 108.229 96.2164C107.975 96.1799 107.747 96.0443 107.593 95.8394C107.44 95.6346 107.374 95.3772 107.41 95.1238Z" fill="white" stroke="black" stroke-linecap="round" stroke-linejoin="round"/>
<path d="M110.396 88.7341C110.251 88.5083 110.043 88.3305 109.797 88.2232C109.551 88.1159 109.279 88.0838 109.015 88.1311C108.751 88.1784 108.506 88.3029 108.313 88.4889C108.12 88.6748 107.986 88.9139 107.928 89.176C107.871 89.438 107.892 89.7113 107.99 89.9612C108.087 90.2111 108.257 90.4264 108.477 90.5801C108.697 90.7337 108.957 90.8187 109.225 90.8243C109.494 90.8299 109.758 90.7559 109.984 90.6116C110.287 90.4171 110.501 90.1102 110.578 89.7582C110.656 89.4062 110.59 89.0379 110.396 88.7341Z" fill="white" stroke="black" stroke-linecap="round" stroke-linejoin="round"/>
<path d="M102.129 94.0311L105.946 87.9861L107.241 88.7987L103.428 94.8468L102.129 94.0311Z" fill="black" stroke="black" stroke-linecap="round" stroke-linejoin="round"/>
<path d="M101.55 94.1789L102.593 92.5168L104.566 93.748L103.52 95.4132C103.355 95.6737 103.094 95.8584 102.793 95.927C102.493 95.9957 102.177 95.9426 101.916 95.7794C101.656 95.6153 101.471 95.3548 101.402 95.0548C101.334 94.7548 101.387 94.4399 101.55 94.1789Z" fill="white" stroke="black" stroke-linecap="round" stroke-linejoin="round"/>
<path d="M107.979 88.6202C107.933 88.2996 107.794 87.9999 107.577 87.759C107.361 87.518 107.078 87.3467 106.764 87.2668C106.451 87.1869 106.12 87.2019 105.815 87.3101C105.51 87.4182 105.244 87.6145 105.05 87.8742C104.857 88.1338 104.745 88.445 104.729 88.7684C104.712 89.0917 104.792 89.4126 104.959 89.6904C105.125 89.9681 105.37 90.1902 105.663 90.3284C105.956 90.4667 106.283 90.5149 106.603 90.4669C107.03 90.4037 107.415 90.1739 107.673 89.8278C107.93 89.4816 108.041 89.0474 107.979 88.6202Z" fill="white" stroke="black" stroke-linecap="round" stroke-linejoin="round"/>
<path d="M100.906 71.479C103.799 69.6168 104.634 65.7618 102.772 62.8688C100.91 59.9759 97.0551 59.1403 94.1621 61.0026C91.2691 62.8648 90.4335 66.7197 92.2958 69.6127C94.158 72.5057 98.0129 73.3413 100.906 71.479Z" fill="white" stroke="black" stroke-linecap="round" stroke-linejoin="round"/>
<path d="M100.283 67.5019C100.978 65.9861 100.313 64.1938 98.7973 63.4985C97.2816 62.8033 95.4892 63.4684 94.794 64.9842C94.0988 66.4999 94.7639 68.2923 96.2797 68.9875C97.7954 69.6828 99.5877 69.0176 100.283 67.5019Z" fill="black" stroke="black" stroke-linecap="round" stroke-linejoin="round"/>
<path d="M84.9067 53.8952C90.433 53.8952 94.913 49.4152 94.913 43.8889C94.913 38.3626 90.433 33.8827 84.9067 33.8827C79.3804 33.8827 74.9004 38.3626 74.9004 43.8889C74.9004 49.4152 79.3804 53.8952 84.9067 53.8952Z" fill="#1D4745" fill-opacity="0.7" stroke="black" stroke-linecap="round" stroke-linejoin="round"/>
<path d="M99.2134 50.5526C101.362 47.8584 102.707 44.6124 103.093 41.1878C103.479 37.7633 102.891 34.2993 101.396 31.1943C99.9008 28.0892 97.5596 25.4693 94.6416 23.6357C91.7237 21.8021 88.3474 20.8294 84.9012 20.8294C81.4549 20.8294 78.0787 21.8021 75.1607 23.6357C72.2427 25.4693 69.9015 28.0892 68.4064 31.1943C66.9113 34.2993 66.3229 37.7633 66.709 41.1878C67.0951 44.6124 68.4399 47.8584 70.5889 50.5526H99.2134Z" fill="white" stroke="black" stroke-linecap="round" stroke-linejoin="round"/>
<path d="M96.1047 32.2267H73.2482C71.8577 32.2267 70.7305 33.3539 70.7305 34.7444V42.8455C70.7305 44.236 71.8577 45.3632 73.2482 45.3632H96.1047C97.4952 45.3632 98.6225 44.236 98.6225 42.8455V34.7444C98.6225 33.3539 97.4952 32.2267 96.1047 32.2267Z" fill="#1D4745" fill-opacity="0.7" stroke="black" stroke-linecap="round" stroke-linejoin="round"/>
<path d="M73.7461 38.2625C74.0484 37.4161 74.5993 36.6808 75.3267 36.153C76.0541 35.6251 76.9239 35.3293 77.8223 35.3044C78.7207 35.2794 79.6056 35.5265 80.3612 36.0131C81.1168 36.4998 81.7076 37.2034 82.0564 38.0317" stroke="black" stroke-width="2" stroke-linecap="round" stroke-linejoin="round"/>
<path d="M87.5312 38.2625C87.8335 37.4161 88.3845 36.6808 89.1118 36.153C89.8392 35.6251 90.7091 35.3293 91.6075 35.3044C92.5058 35.2794 93.3908 35.5265 94.1463 36.0131C94.9019 36.4998 95.4928 37.2034 95.8416 38.0317" stroke="black" stroke-width="2" stroke-linecap="round" stroke-linejoin="round"/>
<path d="M82.4941 41.3065C82.5714 41.9169 82.8687 42.4781 83.3302 42.8849C83.7918 43.2917 84.3859 43.5162 85.0011 43.5162C85.6163 43.5162 86.2104 43.2917 86.672 42.8849C87.1335 42.4781 87.4308 41.9169 87.5081 41.3065H82.4941Z" fill="white" stroke="black" stroke-linecap="round" stroke-linejoin="round"/>
<path d="M108.594 42.3469C108.086 42.3469 107.599 42.1452 107.24 41.7862C106.881 41.4271 106.68 40.9402 106.68 40.4324V36.0772C106.679 35.8255 106.729 35.5763 106.825 35.3436C106.921 35.111 107.062 34.8996 107.239 34.7215C107.417 34.5434 107.628 34.4021 107.861 34.3057C108.093 34.2093 108.342 34.1597 108.594 34.1597C108.846 34.1593 109.095 34.2085 109.328 34.3045C109.56 34.4005 109.772 34.5415 109.95 34.7193C110.128 34.8971 110.269 35.1083 110.366 35.3408C110.462 35.5733 110.512 35.8225 110.512 36.0741V40.4294C110.512 40.6813 110.463 40.9308 110.367 41.1637C110.27 41.3965 110.129 41.608 109.951 41.7862C109.773 41.9643 109.561 42.1055 109.328 42.2018C109.096 42.298 108.846 42.3473 108.594 42.3469Z" fill="black" stroke="black" stroke-linecap="round" stroke-linejoin="round"/>
<path d="M60.6949 42.3469C60.4432 42.3473 60.1939 42.2981 59.9613 42.2021C59.7287 42.106 59.5173 41.9651 59.3392 41.7873C59.1611 41.6094 59.0198 41.3983 58.9234 41.1658C58.827 40.9333 58.7773 40.6841 58.7773 40.4324V36.0772C58.7769 35.8253 58.8263 35.5757 58.9225 35.3429C59.0187 35.1101 59.1599 34.8985 59.3381 34.7204C59.5162 34.5423 59.7278 34.401 59.9606 34.3048C60.1934 34.2086 60.443 34.1593 60.6949 34.1597C60.9463 34.1597 61.1952 34.2092 61.4275 34.3054C61.6598 34.4016 61.8708 34.5426 62.0486 34.7204C62.2264 34.8982 62.3674 35.1092 62.4636 35.3415C62.5598 35.5738 62.6093 35.8227 62.6093 36.0741V40.4294C62.6097 40.681 62.5605 40.9303 62.4645 41.1629C62.3685 41.3956 62.2275 41.607 62.0497 41.7851C61.8719 41.9632 61.6607 42.1045 61.4282 42.2009C61.1958 42.2973 60.9466 42.3469 60.6949 42.3469Z" fill="black" stroke="black" stroke-linecap="round" stroke-linejoin="round"/>
<path d="M66.8338 22.6944C65.1404 25.1966 64.2375 28.1497 64.2422 31.171V34.3351" stroke="black" stroke-width="14" stroke-linecap="round" stroke-linejoin="round"/>
<path d="M103.176 22.7068C101.79 20.6421 99.9175 18.9502 97.7231 17.7806C95.5287 16.6109 93.0801 15.9994 90.5935 16H79.4053C76.9221 15.9983 74.4766 16.6071 72.284 17.7729C70.0915 18.9387 68.2192 20.6256 66.832 22.6852" stroke="black" stroke-width="7" stroke-linecap="round" stroke-linejoin="round"/>
<path d="M105.755 34.3351V31.171C105.76 28.1553 104.861 25.2073 103.176 22.7068" stroke="black" stroke-width="14" stroke-linecap="round" stroke-linejoin="round"/>
<path d="M65.7688 30.9279H63.2018C61.7161 30.9279 60.5117 32.1323 60.5117 33.618V42.5101C60.5117 43.9958 61.7161 45.2001 63.2018 45.2001H65.7688C67.2545 45.2001 68.4589 43.9958 68.4589 42.5101V33.618C68.4589 32.1323 67.2545 30.9279 65.7688 30.9279Z" fill="white" stroke="black" stroke-linecap="round" stroke-linejoin="round"/>
<path d="M64.8915 30.9279H64.082V45.2001H64.8915V30.9279Z" fill="#1D4745" fill-opacity="0.7" stroke="black" stroke-linecap="round" stroke-linejoin="round"/>
<path d="M106.308 30.9279H103.741C102.255 30.9279 101.051 32.1323 101.051 33.618V42.5101C101.051 43.9958 102.255 45.2001 103.741 45.2001H106.308C107.794 45.2001 108.998 43.9958 108.998 42.5101V33.618C108.998 32.1323 107.794 30.9279 106.308 30.9279Z" fill="white" stroke="black" stroke-linecap="round" stroke-linejoin="round"/>
<path d="M105.434 30.9279H104.625V45.2001H105.434V30.9279Z" fill="#1D4745" fill-opacity="0.7" stroke="black" stroke-linecap="round" stroke-linejoin="round"/>
<path d="M84.9701 29.632C86.3722 29.6324 87.7521 29.2816 88.9838 28.6117C90.2155 27.9418 91.2599 26.9741 92.0216 25.797L93.7575 23.11C91.0067 21.5908 87.9111 20.8056 84.7688 20.8298C81.6265 20.8541 78.5434 21.687 75.8164 23.2485L78.4296 26.4926C79.2157 27.4716 80.2113 28.2619 81.3433 28.8052C82.4752 29.3485 83.7145 29.6311 84.9701 29.632Z" fill="#1D4745" fill-opacity="0.7" stroke="black" stroke-linecap="round" stroke-linejoin="round"/>
<path d="M85.4066 46.6929C85.4066 46.632 85.3885 46.5725 85.3547 46.5219C85.3209 46.4712 85.2728 46.4318 85.2166 46.4085C85.1604 46.3852 85.0985 46.3791 85.0388 46.391C84.9791 46.4029 84.9242 46.4322 84.8812 46.4752C84.8381 46.5183 84.8088 46.5731 84.7969 46.6328C84.7851 46.6925 84.7911 46.7544 84.8144 46.8106C84.8377 46.8669 84.8772 46.915 84.9278 46.9488C84.9784 46.9826 85.0379 47.0007 85.0988 47.0007C85.1804 47.0007 85.2587 46.9682 85.3164 46.9105C85.3742 46.8528 85.4066 46.7745 85.4066 46.6929Z" fill="black"/>
<path d="M85.4066 47.7271C85.4066 47.6662 85.3885 47.6067 85.3547 47.5561C85.3209 47.5055 85.2728 47.466 85.2166 47.4427C85.1604 47.4194 85.0985 47.4133 85.0388 47.4252C84.9791 47.4371 84.9242 47.4664 84.8812 47.5094C84.8381 47.5525 84.8088 47.6073 84.7969 47.667C84.7851 47.7267 84.7911 47.7886 84.8144 47.8449C84.8377 47.9011 84.8772 47.9492 84.9278 47.983C84.9784 48.0168 85.0379 48.0349 85.0988 48.0349C85.1804 48.0349 85.2587 48.0024 85.3164 47.9447C85.3742 47.887 85.4066 47.8087 85.4066 47.7271Z" fill="black"/>
<path d="M84.2331 47.567C84.2894 47.5307 84.3322 47.4771 84.3552 47.4143C84.3782 47.3515 84.3802 47.2828 84.3607 47.2188C84.3412 47.1548 84.3014 47.0989 84.2473 47.0595C84.1932 47.0202 84.1277 46.9995 84.0608 47.0007C84.0046 47.037 83.9617 47.0906 83.9387 47.1534C83.9157 47.2163 83.9138 47.2849 83.9333 47.3489C83.9527 47.4129 83.9926 47.4688 84.0467 47.5082C84.1008 47.5476 84.1662 47.5682 84.2331 47.567Z" fill="black"/>
<path d="M86.0841 47.567C86.1317 47.5662 86.1785 47.5543 86.2207 47.5323C86.263 47.5103 86.2996 47.4789 86.3276 47.4403C86.3556 47.4018 86.3743 47.3573 86.3822 47.3104C86.3901 47.2634 86.387 47.2152 86.3731 47.1697C86.3593 47.1241 86.335 47.0824 86.3023 47.0478C86.2695 47.0132 86.2292 46.9867 86.1845 46.9703C86.1398 46.9539 86.0919 46.9481 86.0445 46.9534C85.9972 46.9587 85.9517 46.9749 85.9117 47.0007C85.8641 47.0015 85.8173 47.0134 85.7751 47.0354C85.7328 47.0574 85.6963 47.0889 85.6683 47.1274C85.6402 47.1659 85.6215 47.2104 85.6136 47.2574C85.6057 47.3043 85.6088 47.3525 85.6227 47.3981C85.6366 47.4436 85.6608 47.4854 85.6936 47.52C85.7263 47.5546 85.7666 47.5811 85.8113 47.5975C85.856 47.6138 85.904 47.6196 85.9513 47.6143C85.9986 47.6091 86.0441 47.5929 86.0841 47.567Z" fill="black"/>
<path d="M97.2049 58.2412C93.2868 57.3578 84.804 57.0408 84.804 57.0408C82.7603 57.1054 77.0723 57.3486 73.1542 58.2443C72.4124 58.4128 71.767 58.867 71.3579 59.5083C70.9488 60.1496 70.809 60.9263 70.9688 61.67L74.5977 78.6477C74.776 79.4709 75.2303 80.2085 75.8853 80.7381C76.5402 81.2676 77.3566 81.5574 78.1989 81.5594H92.1879C93.0302 81.5574 93.8466 81.2676 94.5015 80.7381C95.1565 80.2085 95.6108 79.4709 95.7891 78.6477L99.4149 61.67C99.5741 60.9224 99.4311 60.1423 99.017 59.4998C98.6029 58.8574 97.9515 58.4049 97.2049 58.2412Z" fill="white" stroke="black" stroke-linecap="round" stroke-linejoin="round"/>
<path d="M95.4216 57.9149C91.171 57.2809 84.8151 57.0408 84.8151 57.0408C81.7031 57.1299 78.5981 57.3868 75.5137 57.8103L79.6258 81.5594H90.8016L95.4216 57.9149Z" fill="#1D4745" fill-opacity="0.7" stroke="black" stroke-linecap="round" stroke-linejoin="round"/>
<path d="M88.4843 62.2025H81.6759C80.2854 62.2025 79.1582 63.3297 79.1582 64.7202V68.0443C79.1582 69.4348 80.2854 70.5621 81.6759 70.5621H88.4843C89.8748 70.5621 91.002 69.4348 91.002 68.0443V64.7202C91.002 63.3297 89.8748 62.2025 88.4843 62.2025Z" fill="white" stroke="black" stroke-linecap="round" stroke-linejoin="round"/>
<path d="M83.0894 65.6467H81.1719V67.5642H83.0894V65.6467Z" fill="white" stroke="black" stroke-linecap="round" stroke-linejoin="round"/>
<path d="M86.0347 65.6467H84.1172V67.5642H86.0347V65.6467Z" fill="white" stroke="black" stroke-linecap="round" stroke-linejoin="round"/>
<path d="M88.9839 65.6467H87.0664V67.5642H88.9839V65.6467Z" fill="white" stroke="black" stroke-linecap="round" stroke-linejoin="round"/>
<path d="M157 126H36.5C31.8056 126 28 129.806 28 134.5V134.5C28 139.194 31.8056 143 36.5 143H140C149.389 143 157 135.389 157 126V126Z" fill="#F4CB69"/>
<path d="M39.542 132.121V132.639H38.212V137H37.575V132.639H36.238V132.121H39.542ZM43.8261 134.935C43.8261 135.056 43.8191 135.185 43.8051 135.32H40.7391C40.7624 135.698 40.8908 135.994 41.1241 136.209C41.3621 136.419 41.6491 136.524 41.9851 136.524C42.2604 136.524 42.4891 136.461 42.6711 136.335C42.8578 136.204 42.9884 136.032 43.0631 135.817H43.7491C43.6464 136.186 43.4411 136.487 43.1331 136.72C42.8251 136.949 42.4424 137.063 41.9851 137.063C41.6211 137.063 41.2944 136.981 41.0051 136.818C40.7204 136.655 40.4964 136.424 40.3331 136.125C40.1698 135.822 40.0881 135.472 40.0881 135.075C40.0881 134.678 40.1674 134.331 40.3261 134.032C40.4848 133.733 40.7064 133.505 40.9911 133.346C41.2804 133.183 41.6118 133.101 41.9851 133.101C42.3491 133.101 42.6711 133.18 42.9511 133.339C43.2311 133.498 43.4458 133.717 43.5951 133.997C43.7491 134.272 43.8261 134.585 43.8261 134.935ZM43.1681 134.802C43.1681 134.559 43.1144 134.352 43.0071 134.179C42.8998 134.002 42.7528 133.869 42.5661 133.78C42.3841 133.687 42.1811 133.64 41.9571 133.64C41.6351 133.64 41.3598 133.743 41.1311 133.948C40.9071 134.153 40.7788 134.438 40.7461 134.802H43.1681ZM45.3039 131.82V137H44.6669V131.82H45.3039ZM47.0266 131.82V137H46.3896V131.82H47.0266ZM54.5915 133.094C54.8901 133.094 55.1561 133.157 55.3895 133.283C55.6228 133.404 55.8071 133.589 55.9425 133.836C56.0778 134.083 56.1455 134.384 56.1455 134.739V137H55.5155V134.83C55.5155 134.447 55.4198 134.156 55.2285 133.955C55.0418 133.75 54.7875 133.647 54.4655 133.647C54.1341 133.647 53.8705 133.754 53.6745 133.969C53.4785 134.179 53.3805 134.485 53.3805 134.886V137H52.7505V134.83C52.7505 134.447 52.6548 134.156 52.4635 133.955C52.2768 133.75 52.0225 133.647 51.7005 133.647C51.3691 133.647 51.1055 133.754 50.9095 133.969C50.7135 134.179 50.6155 134.485 50.6155 134.886V137H49.9785V133.164H50.6155V133.717C50.7415 133.516 50.9095 133.362 51.1195 133.255C51.3341 133.148 51.5698 133.094 51.8265 133.094C52.1485 133.094 52.4331 133.166 52.6805 133.311C52.9278 133.456 53.1121 133.668 53.2335 133.948C53.3408 133.677 53.5181 133.467 53.7655 133.318C54.0128 133.169 54.2881 133.094 54.5915 133.094ZM60.6904 134.935C60.6904 135.056 60.6834 135.185 60.6694 135.32H57.6034C57.6267 135.698 57.755 135.994 57.9884 136.209C58.2264 136.419 58.5134 136.524 58.8494 136.524C59.1247 136.524 59.3534 136.461 59.5354 136.335C59.722 136.204 59.8527 136.032 59.9274 135.817H60.6134C60.5107 136.186 60.3054 136.487 59.9974 136.72C59.6894 136.949 59.3067 137.063 58.8494 137.063C58.4854 137.063 58.1587 136.981 57.8694 136.818C57.5847 136.655 57.3607 136.424 57.1974 136.125C57.034 135.822 56.9524 135.472 56.9524 135.075C56.9524 134.678 57.0317 134.331 57.1904 134.032C57.349 133.733 57.5707 133.505 57.8554 133.346C58.1447 133.183 58.476 133.101 58.8494 133.101C59.2134 133.101 59.5354 133.18 59.8154 133.339C60.0954 133.498 60.31 133.717 60.4594 133.997C60.6134 134.272 60.6904 134.585 60.6904 134.935ZM60.0324 134.802C60.0324 134.559 59.9787 134.352 59.8714 134.179C59.764 134.002 59.617 133.869 59.4304 133.78C59.2484 133.687 59.0454 133.64 58.8214 133.64C58.4994 133.64 58.224 133.743 57.9954 133.948C57.7714 134.153 57.643 134.438 57.6104 134.802H60.0324ZM63.1594 135.068C63.1594 134.676 63.2387 134.333 63.3974 134.039C63.5561 133.74 63.7731 133.509 64.0484 133.346C64.3284 133.183 64.6387 133.101 64.9794 133.101C65.3154 133.101 65.6071 133.173 65.8544 133.318C66.1017 133.463 66.2861 133.645 66.4074 133.864V133.164H67.0514V137H66.4074V136.286C66.2814 136.51 66.0924 136.697 65.8404 136.846C65.5931 136.991 65.3037 137.063 64.9724 137.063C64.6317 137.063 64.3237 136.979 64.0484 136.811C63.7731 136.643 63.5561 136.407 63.3974 136.104C63.2387 135.801 63.1594 135.455 63.1594 135.068ZM66.4074 135.075C66.4074 134.786 66.3491 134.534 66.2324 134.319C66.1157 134.104 65.9571 133.941 65.7564 133.829C65.5604 133.712 65.3434 133.654 65.1054 133.654C64.8674 133.654 64.6504 133.71 64.4544 133.822C64.2584 133.934 64.1021 134.097 63.9854 134.312C63.8687 134.527 63.8104 134.779 63.8104 135.068C63.8104 135.362 63.8687 135.619 63.9854 135.838C64.1021 136.053 64.2584 136.218 64.4544 136.335C64.6504 136.447 64.8674 136.503 65.1054 136.503C65.3434 136.503 65.5604 136.447 65.7564 136.335C65.9571 136.218 66.1157 136.053 66.2324 135.838C66.3491 135.619 66.4074 135.364 66.4074 135.075ZM68.7649 133.878C68.8955 133.649 69.0869 133.463 69.3389 133.318C69.5909 133.173 69.8779 133.101 70.1999 133.101C70.5452 133.101 70.8555 133.183 71.1309 133.346C71.4062 133.509 71.6232 133.74 71.7819 134.039C71.9405 134.333 72.0199 134.676 72.0199 135.068C72.0199 135.455 71.9405 135.801 71.7819 136.104C71.6232 136.407 71.4039 136.643 71.1239 136.811C70.8485 136.979 70.5405 137.063 70.1999 137.063C69.8685 137.063 69.5769 136.991 69.3249 136.846C69.0775 136.701 68.8909 136.517 68.7649 136.293V137H68.1279V131.82H68.7649V133.878ZM71.3689 135.068C71.3689 134.779 71.3105 134.527 71.1939 134.312C71.0772 134.097 70.9185 133.934 70.7179 133.822C70.5219 133.71 70.3049 133.654 70.0669 133.654C69.8335 133.654 69.6165 133.712 69.4159 133.829C69.2199 133.941 69.0612 134.107 68.9399 134.326C68.8232 134.541 68.7649 134.79 68.7649 135.075C68.7649 135.364 68.8232 135.619 68.9399 135.838C69.0612 136.053 69.2199 136.218 69.4159 136.335C69.6165 136.447 69.8335 136.503 70.0669 136.503C70.3049 136.503 70.5219 136.447 70.7179 136.335C70.9185 136.218 71.0772 136.053 71.1939 135.838C71.3105 135.619 71.3689 135.362 71.3689 135.068ZM74.5313 137.063C74.172 137.063 73.8453 136.981 73.5513 136.818C73.262 136.655 73.0333 136.424 72.8653 136.125C72.702 135.822 72.6203 135.472 72.6203 135.075C72.6203 134.683 72.7043 134.338 72.8723 134.039C73.045 133.736 73.2783 133.505 73.5723 133.346C73.8663 133.183 74.1953 133.101 74.5593 133.101C74.9233 133.101 75.2523 133.183 75.5463 133.346C75.8403 133.505 76.0713 133.733 76.2393 134.032C76.412 134.331 76.4983 134.678 76.4983 135.075C76.4983 135.472 76.4097 135.822 76.2323 136.125C76.0597 136.424 75.824 136.655 75.5253 136.818C75.2267 136.981 74.8953 137.063 74.5313 137.063ZM74.5313 136.503C74.76 136.503 74.9747 136.449 75.1753 136.342C75.376 136.235 75.537 136.074 75.6583 135.859C75.7843 135.644 75.8473 135.383 75.8473 135.075C75.8473 134.767 75.7867 134.506 75.6653 134.291C75.544 134.076 75.3853 133.918 75.1893 133.815C74.9933 133.708 74.781 133.654 74.5523 133.654C74.319 133.654 74.1043 133.708 73.9083 133.815C73.717 133.918 73.563 134.076 73.4463 134.291C73.3297 134.506 73.2713 134.767 73.2713 135.075C73.2713 135.388 73.3273 135.651 73.4393 135.866C73.556 136.081 73.71 136.242 73.9013 136.349C74.0927 136.452 74.3027 136.503 74.5313 136.503ZM80.7379 133.164V137H80.1009V136.433C79.9795 136.629 79.8092 136.783 79.5899 136.895C79.3752 137.002 79.1372 137.056 78.8759 137.056C78.5772 137.056 78.3089 136.995 78.0709 136.874C77.8329 136.748 77.6439 136.561 77.5039 136.314C77.3685 136.067 77.3009 135.766 77.3009 135.411V133.164H77.9309V135.327C77.9309 135.705 78.0265 135.997 78.2179 136.202C78.4092 136.403 78.6705 136.503 79.0019 136.503C79.3425 136.503 79.6109 136.398 79.8069 136.188C80.0029 135.978 80.1009 135.672 80.1009 135.271V133.164H80.7379ZM82.5904 133.689V135.95C82.5904 136.137 82.6301 136.27 82.7094 136.349C82.7887 136.424 82.9264 136.461 83.1224 136.461H83.5914V137H83.0174C82.6627 137 82.3967 136.918 82.2194 136.755C82.0421 136.592 81.9534 136.323 81.9534 135.95V133.689H81.4564V133.164H81.9534V132.198H82.5904V133.164H83.5914V133.689H82.5904ZM87.0064 133.689V135.95C87.0064 136.137 87.0461 136.27 87.1254 136.349C87.2048 136.424 87.3424 136.461 87.5384 136.461H88.0074V137H87.4334C87.0788 137 86.8128 136.918 86.6354 136.755C86.4581 136.592 86.3694 136.323 86.3694 135.95V133.689H85.8724V133.164H86.3694V132.198H87.0064V133.164H88.0074V133.689H87.0064ZM90.6832 133.094C90.9726 133.094 91.2339 133.157 91.4672 133.283C91.7006 133.404 91.8826 133.589 92.0132 133.836C92.1486 134.083 92.2162 134.384 92.2162 134.739V137H91.5862V134.83C91.5862 134.447 91.4906 134.156 91.2992 133.955C91.1079 133.75 90.8466 133.647 90.5152 133.647C90.1792 133.647 89.9109 133.752 89.7102 133.962C89.5142 134.172 89.4162 134.478 89.4162 134.879V137H88.7792V131.82H89.4162V133.71C89.5422 133.514 89.7149 133.362 89.9342 133.255C90.1582 133.148 90.4079 133.094 90.6832 133.094ZM96.7568 134.935C96.7568 135.056 96.7498 135.185 96.7358 135.32H93.6698C93.6931 135.698 93.8214 135.994 94.0548 136.209C94.2928 136.419 94.5798 136.524 94.9158 136.524C95.1911 136.524 95.4198 136.461 95.6018 136.335C95.7884 136.204 95.9191 136.032 95.9938 135.817H96.6798C96.5771 136.186 96.3718 136.487 96.0638 136.72C95.7558 136.949 95.3731 137.063 94.9158 137.063C94.5518 137.063 94.2251 136.981 93.9358 136.818C93.6511 136.655 93.4271 136.424 93.2638 136.125C93.1004 135.822 93.0188 135.472 93.0188 135.075C93.0188 134.678 93.0981 134.331 93.2568 134.032C93.4154 133.733 93.6371 133.505 93.9218 133.346C94.2111 133.183 94.5424 133.101 94.9158 133.101C95.2798 133.101 95.6018 133.18 95.8818 133.339C96.1618 133.498 96.3764 133.717 96.5258 133.997C96.6798 134.272 96.7568 134.585 96.7568 134.935ZM96.0988 134.802C96.0988 134.559 96.0451 134.352 95.9378 134.179C95.8304 134.002 95.6834 133.869 95.4968 133.78C95.3148 133.687 95.1118 133.64 94.8878 133.64C94.5658 133.64 94.2904 133.743 94.0618 133.948C93.8378 134.153 93.7094 134.438 93.6768 134.802H96.0988ZM100.101 133.878C100.231 133.649 100.423 133.463 100.675 133.318C100.927 133.173 101.214 133.101 101.536 133.101C101.881 133.101 102.191 133.183 102.467 133.346C102.742 133.509 102.959 133.74 103.118 134.039C103.276 134.333 103.356 134.676 103.356 135.068C103.356 135.455 103.276 135.801 103.118 136.104C102.959 136.407 102.74 136.643 102.46 136.811C102.184 136.979 101.876 137.063 101.536 137.063C101.204 137.063 100.913 136.991 100.661 136.846C100.413 136.701 100.227 136.517 100.101 136.293V137H99.4638V131.82H100.101V133.878ZM102.705 135.068C102.705 134.779 102.646 134.527 102.53 134.312C102.413 134.097 102.254 133.934 102.054 133.822C101.858 133.71 101.641 133.654 101.403 133.654C101.169 133.654 100.952 133.712 100.752 133.829C100.556 133.941 100.397 134.107 100.276 134.326C100.159 134.541 100.101 134.79 100.101 135.075C100.101 135.364 100.159 135.619 100.276 135.838C100.397 136.053 100.556 136.218 100.752 136.335C100.952 136.447 101.169 136.503 101.403 136.503C101.641 136.503 101.858 136.447 102.054 136.335C102.254 136.218 102.413 136.053 102.53 135.838C102.646 135.619 102.705 135.362 102.705 135.068ZM105.867 137.063C105.508 137.063 105.181 136.981 104.887 136.818C104.598 136.655 104.369 136.424 104.201 136.125C104.038 135.822 103.956 135.472 103.956 135.075C103.956 134.683 104.04 134.338 104.208 134.039C104.381 133.736 104.614 133.505 104.908 133.346C105.202 133.183 105.531 133.101 105.895 133.101C106.259 133.101 106.588 133.183 106.882 133.346C107.176 133.505 107.407 133.733 107.575 134.032C107.748 134.331 107.834 134.678 107.834 135.075C107.834 135.472 107.746 135.822 107.568 136.125C107.396 136.424 107.16 136.655 106.861 136.818C106.563 136.981 106.231 137.063 105.867 137.063ZM105.867 136.503C106.096 136.503 106.311 136.449 106.511 136.342C106.712 136.235 106.873 136.074 106.994 135.859C107.12 135.644 107.183 135.383 107.183 135.075C107.183 134.767 107.123 134.506 107.001 134.291C106.88 134.076 106.721 133.918 106.525 133.815C106.329 133.708 106.117 133.654 105.888 133.654C105.655 133.654 105.44 133.708 105.244 133.815C105.053 133.918 104.899 134.076 104.782 134.291C104.666 134.506 104.607 134.767 104.607 135.075C104.607 135.388 104.663 135.651 104.775 135.866C104.892 136.081 105.046 136.242 105.237 136.349C105.429 136.452 105.639 136.503 105.867 136.503ZM110.345 137.063C109.985 137.063 109.659 136.981 109.365 136.818C109.075 136.655 108.847 136.424 108.679 136.125C108.515 135.822 108.434 135.472 108.434 135.075C108.434 134.683 108.518 134.338 108.686 134.039C108.858 133.736 109.092 133.505 109.386 133.346C109.68 133.183 110.009 133.101 110.373 133.101C110.737 133.101 111.066 133.183 111.36 133.346C111.654 133.505 111.885 133.733 112.053 134.032C112.225 134.331 112.312 134.678 112.312 135.075C112.312 135.472 112.223 135.822 112.046 136.125C111.873 136.424 111.637 136.655 111.339 136.818C111.04 136.981 110.709 137.063 110.345 137.063ZM110.345 136.503C110.573 136.503 110.788 136.449 110.989 136.342C111.189 136.235 111.35 136.074 111.472 135.859C111.598 135.644 111.661 135.383 111.661 135.075C111.661 134.767 111.6 134.506 111.479 134.291C111.357 134.076 111.199 133.918 111.003 133.815C110.807 133.708 110.594 133.654 110.366 133.654C110.132 133.654 109.918 133.708 109.722 133.815C109.53 133.918 109.376 134.076 109.26 134.291C109.143 134.506 109.085 134.767 109.085 135.075C109.085 135.388 109.141 135.651 109.253 135.866C109.369 136.081 109.523 136.242 109.715 136.349C109.906 136.452 110.116 136.503 110.345 136.503ZM115.291 137L113.786 135.306V137H113.149V131.82H113.786V134.865L115.263 133.164H116.152L114.346 135.075L116.159 137H115.291ZM118.961 133.71H118.247L118.919 132.121H119.374L118.961 133.71ZM120.095 133.71H119.381L120.053 132.121H120.508L120.095 133.71ZM124.28 132.121V132.639H122.95V137H122.313V132.639H120.976V132.121H124.28ZM126.968 133.094C127.258 133.094 127.519 133.157 127.752 133.283C127.986 133.404 128.168 133.589 128.298 133.836C128.434 134.083 128.501 134.384 128.501 134.739V137H127.871V134.83C127.871 134.447 127.776 134.156 127.584 133.955C127.393 133.75 127.132 133.647 126.8 133.647C126.464 133.647 126.196 133.752 125.995 133.962C125.799 134.172 125.701 134.478 125.701 134.879V137H125.064V131.82H125.701V133.71C125.827 133.514 126 133.362 126.219 133.255C126.443 133.148 126.693 133.094 126.968 133.094ZM133.042 134.935C133.042 135.056 133.035 135.185 133.021 135.32H129.955C129.978 135.698 130.107 135.994 130.34 136.209C130.578 136.419 130.865 136.524 131.201 136.524C131.476 136.524 131.705 136.461 131.887 136.335C132.074 136.204 132.204 136.032 132.279 135.817H132.965C132.862 136.186 132.657 136.487 132.349 136.72C132.041 136.949 131.658 137.063 131.201 137.063C130.837 137.063 130.51 136.981 130.221 136.818C129.936 136.655 129.712 136.424 129.549 136.125C129.386 135.822 129.304 135.472 129.304 135.075C129.304 134.678 129.383 134.331 129.542 134.032C129.701 133.733 129.922 133.505 130.207 133.346C130.496 133.183 130.828 133.101 131.201 133.101C131.565 133.101 131.887 133.18 132.167 133.339C132.447 133.498 132.662 133.717 132.811 133.997C132.965 134.272 133.042 134.585 133.042 134.935ZM132.384 134.802C132.384 134.559 132.33 134.352 132.223 134.179C132.116 134.002 131.969 133.869 131.782 133.78C131.6 133.687 131.397 133.64 131.173 133.64C130.851 133.64 130.576 133.743 130.347 133.948C130.123 134.153 129.995 134.438 129.962 134.802H132.384ZM138.752 132.121V132.639H137.422V137H136.785V132.639H135.448V132.121H138.752ZM139.298 135.068C139.298 134.676 139.377 134.333 139.536 134.039C139.695 133.74 139.912 133.509 140.187 133.346C140.467 133.183 140.777 133.101 141.118 133.101C141.454 133.101 141.746 133.173 141.993 133.318C142.24 133.463 142.425 133.645 142.546 133.864V133.164H143.19V137H142.546V136.286C142.42 136.51 142.231 136.697 141.979 136.846C141.732 136.991 141.442 137.063 141.111 137.063C140.77 137.063 140.462 136.979 140.187 136.811C139.912 136.643 139.695 136.407 139.536 136.104C139.377 135.801 139.298 135.455 139.298 135.068ZM142.546 135.075C142.546 134.786 142.488 134.534 142.371 134.319C142.254 134.104 142.096 133.941 141.895 133.829C141.699 133.712 141.482 133.654 141.244 133.654C141.006 133.654 140.789 133.71 140.593 133.822C140.397 133.934 140.241 134.097 140.124 134.312C140.007 134.527 139.949 134.779 139.949 135.068C139.949 135.362 140.007 135.619 140.124 135.838C140.241 136.053 140.397 136.218 140.593 136.335C140.789 136.447 141.006 136.503 141.244 136.503C141.482 136.503 141.699 136.447 141.895 136.335C142.096 136.218 142.254 136.053 142.371 135.838C142.488 135.619 142.546 135.364 142.546 135.075ZM146.269 137L145.359 135.572L144.484 137H143.819L145.058 135.096L143.819 133.164H144.54L145.45 134.585L146.318 133.164H146.983L145.751 135.061L146.99 137H146.269ZM147.714 132.121H148.421L147.749 133.71H147.301L147.714 132.121ZM148.848 132.121H149.555L148.883 133.71H148.428L148.848 132.121Z" fill="black"/>
<path d="M3 104H123.5C128.194 104 132 107.806 132 112.5V112.5C132 117.194 128.194 121 123.5 121H20C10.6112 121 3 113.389 3 104V104Z" fill="white"/>
<path d="M12.298 110.121V115H11.661V112.788H9.176V115H8.539V110.121H9.176V112.263H11.661V110.121H12.298ZM16.8857 112.935C16.8857 113.056 16.8787 113.185 16.8647 113.32H13.7987C13.822 113.698 13.9503 113.994 14.1837 114.209C14.4217 114.419 14.7087 114.524 15.0447 114.524C15.32 114.524 15.5487 114.461 15.7307 114.335C15.9173 114.204 16.048 114.032 16.1227 113.817H16.8087C16.706 114.186 16.5007 114.487 16.1927 114.72C15.8847 114.949 15.502 115.063 15.0447 115.063C14.6807 115.063 14.354 114.981 14.0647 114.818C13.78 114.655 13.556 114.424 13.3927 114.125C13.2293 113.822 13.1477 113.472 13.1477 113.075C13.1477 112.678 13.227 112.331 13.3857 112.032C13.5443 111.733 13.766 111.505 14.0507 111.346C14.34 111.183 14.6713 111.101 15.0447 111.101C15.4087 111.101 15.7307 111.18 16.0107 111.339C16.2907 111.498 16.5053 111.717 16.6547 111.997C16.8087 112.272 16.8857 112.585 16.8857 112.935ZM16.2277 112.802C16.2277 112.559 16.174 112.352 16.0667 112.179C15.9593 112.002 15.8123 111.869 15.6257 111.78C15.4437 111.687 15.2407 111.64 15.0167 111.64C14.6947 111.64 14.4193 111.743 14.1907 111.948C13.9667 112.153 13.8383 112.438 13.8057 112.802H16.2277ZM18.3635 109.82V115H17.7265V109.82H18.3635ZM20.0862 109.82V115H19.4492V109.82H20.0862ZM22.8448 115.063C22.4855 115.063 22.1588 114.981 21.8648 114.818C21.5755 114.655 21.3468 114.424 21.1788 114.125C21.0155 113.822 20.9338 113.472 20.9338 113.075C20.9338 112.683 21.0178 112.338 21.1858 112.039C21.3585 111.736 21.5918 111.505 21.8858 111.346C22.1798 111.183 22.5088 111.101 22.8728 111.101C23.2368 111.101 23.5658 111.183 23.8598 111.346C24.1538 111.505 24.3848 111.733 24.5528 112.032C24.7255 112.331 24.8118 112.678 24.8118 113.075C24.8118 113.472 24.7231 113.822 24.5458 114.125C24.3731 114.424 24.1375 114.655 23.8388 114.818C23.5401 114.981 23.2088 115.063 22.8448 115.063ZM22.8448 114.503C23.0735 114.503 23.2881 114.449 23.4888 114.342C23.6895 114.235 23.8505 114.074 23.9718 113.859C24.0978 113.644 24.1608 113.383 24.1608 113.075C24.1608 112.767 24.1001 112.506 23.9788 112.291C23.8575 112.076 23.6988 111.918 23.5028 111.815C23.3068 111.708 23.0945 111.654 22.8658 111.654C22.6325 111.654 22.4178 111.708 22.2218 111.815C22.0305 111.918 21.8765 112.076 21.7598 112.291C21.6431 112.506 21.5848 112.767 21.5848 113.075C21.5848 113.388 21.6408 113.651 21.7528 113.866C21.8695 114.081 22.0235 114.242 22.2148 114.349C22.4061 114.452 22.6161 114.503 22.8448 114.503ZM28.2926 111.689V113.95C28.2926 114.137 28.3322 114.27 28.4116 114.349C28.4909 114.424 28.6286 114.461 28.8246 114.461H29.2936V115H28.7196C28.3649 115 28.0989 114.918 27.9216 114.755C27.7442 114.592 27.6556 114.323 27.6556 113.95V111.689H27.1586V111.164H27.6556V110.198H28.2926V111.164H29.2936V111.689H28.2926ZM31.9694 111.094C32.2587 111.094 32.52 111.157 32.7534 111.283C32.9867 111.404 33.1687 111.589 33.2994 111.836C33.4347 112.083 33.5024 112.384 33.5024 112.739V115H32.8724V112.83C32.8724 112.447 32.7767 112.156 32.5854 111.955C32.394 111.75 32.1327 111.647 31.8014 111.647C31.4654 111.647 31.197 111.752 30.9964 111.962C30.8004 112.172 30.7024 112.478 30.7024 112.879V115H30.0654V109.82H30.7024V111.71C30.8284 111.514 31.001 111.362 31.2204 111.255C31.4444 111.148 31.694 111.094 31.9694 111.094ZM38.0429 112.935C38.0429 113.056 38.0359 113.185 38.0219 113.32H34.9559C34.9792 113.698 35.1076 113.994 35.3409 114.209C35.5789 114.419 35.8659 114.524 36.2019 114.524C36.4772 114.524 36.7059 114.461 36.8879 114.335C37.0746 114.204 37.2052 114.032 37.2799 113.817H37.9659C37.8632 114.186 37.6579 114.487 37.3499 114.72C37.0419 114.949 36.6592 115.063 36.2019 115.063C35.8379 115.063 35.5112 114.981 35.2219 114.818C34.9372 114.655 34.7132 114.424 34.5499 114.125C34.3866 113.822 34.3049 113.472 34.3049 113.075C34.3049 112.678 34.3842 112.331 34.5429 112.032C34.7016 111.733 34.9232 111.505 35.2079 111.346C35.4972 111.183 35.8286 111.101 36.2019 111.101C36.5659 111.101 36.8879 111.18 37.1679 111.339C37.4479 111.498 37.6626 111.717 37.8119 111.997C37.9659 112.272 38.0429 112.585 38.0429 112.935ZM37.3849 112.802C37.3849 112.559 37.3312 112.352 37.2239 112.179C37.1166 112.002 36.9696 111.869 36.7829 111.78C36.6009 111.687 36.3979 111.64 36.1739 111.64C35.8519 111.64 35.5766 111.743 35.3479 111.948C35.1239 112.153 34.9956 112.438 34.9629 112.802H37.3849ZM39.5207 111.787C39.6327 111.568 39.7914 111.397 39.9967 111.276C40.2067 111.155 40.4611 111.094 40.7597 111.094V111.752H40.5917C39.8777 111.752 39.5207 112.139 39.5207 112.914V115H38.8837V111.164H39.5207V111.787ZM44.9951 112.935C44.9951 113.056 44.9881 113.185 44.9741 113.32H41.9081C41.9314 113.698 42.0597 113.994 42.2931 114.209C42.5311 114.419 42.8181 114.524 43.1541 114.524C43.4294 114.524 43.6581 114.461 43.8401 114.335C44.0267 114.204 44.1574 114.032 44.2321 113.817H44.9181C44.8154 114.186 44.6101 114.487 44.3021 114.72C43.9941 114.949 43.6114 115.063 43.1541 115.063C42.7901 115.063 42.4634 114.981 42.1741 114.818C41.8894 114.655 41.6654 114.424 41.5021 114.125C41.3387 113.822 41.2571 113.472 41.2571 113.075C41.2571 112.678 41.3364 112.331 41.4951 112.032C41.6537 111.733 41.8754 111.505 42.1601 111.346C42.4494 111.183 42.7807 111.101 43.1541 111.101C43.5181 111.101 43.8401 111.18 44.1201 111.339C44.4001 111.498 44.6147 111.717 44.7641 111.997C44.9181 112.272 44.9951 112.585 44.9951 112.935ZM44.3371 112.802C44.3371 112.559 44.2834 112.352 44.1761 112.179C44.0687 112.002 43.9217 111.869 43.7351 111.78C43.5531 111.687 43.3501 111.64 43.1261 111.64C42.8041 111.64 42.5287 111.743 42.3001 111.948C42.0761 112.153 41.9477 112.438 41.9151 112.802H44.3371ZM46.6619 110.121L46.5849 113.621H46.0529L45.9759 110.121H46.6619ZM46.3469 115.042C46.2255 115.042 46.1229 115 46.0389 114.916C45.9549 114.832 45.9129 114.729 45.9129 114.608C45.9129 114.487 45.9549 114.384 46.0389 114.3C46.1229 114.216 46.2255 114.174 46.3469 114.174C46.4635 114.174 46.5615 114.216 46.6409 114.3C46.7249 114.384 46.7669 114.487 46.7669 114.608C46.7669 114.729 46.7249 114.832 46.6409 114.916C46.5615 115 46.4635 115.042 46.3469 115.042ZM49.248 115.49H56.248V108.49H49.248V115.49ZM59.2903 110.121V115H58.6533V110.121H59.2903ZM61.1529 111.689V113.95C61.1529 114.137 61.1926 114.27 61.2719 114.349C61.3512 114.424 61.4889 114.461 61.6849 114.461H62.1539V115H61.5799C61.2252 115 60.9592 114.918 60.7819 114.755C60.6046 114.592 60.5159 114.323 60.5159 113.95V111.689H60.0189V111.164H60.5159V110.198H61.1529V111.164H62.1539V111.689H61.1529ZM63.2477 109.428L63.1637 110.821H62.7227L62.6317 109.428H63.2477ZM65.398 115.063C65.104 115.063 64.8403 115.014 64.607 114.916C64.3736 114.813 64.1893 114.673 64.054 114.496C63.9186 114.314 63.844 114.106 63.83 113.873H64.488C64.5066 114.064 64.5953 114.221 64.754 114.342C64.9173 114.463 65.1296 114.524 65.391 114.524C65.6336 114.524 65.825 114.47 65.965 114.363C66.105 114.256 66.175 114.12 66.175 113.957C66.175 113.789 66.1003 113.665 65.951 113.586C65.8016 113.502 65.5706 113.42 65.258 113.341C64.9733 113.266 64.74 113.192 64.558 113.117C64.3806 113.038 64.2266 112.923 64.096 112.774C63.97 112.62 63.907 112.419 63.907 112.172C63.907 111.976 63.9653 111.796 64.082 111.633C64.1986 111.47 64.3643 111.341 64.579 111.248C64.7936 111.15 65.0386 111.101 65.314 111.101C65.7386 111.101 66.0816 111.208 66.343 111.423C66.6043 111.638 66.7443 111.932 66.763 112.305H66.126C66.112 112.104 66.0303 111.943 65.881 111.822C65.7363 111.701 65.5403 111.64 65.293 111.64C65.0643 111.64 64.8823 111.689 64.747 111.787C64.6116 111.885 64.544 112.013 64.544 112.172C64.544 112.298 64.5836 112.403 64.663 112.487C64.747 112.566 64.8496 112.632 64.971 112.683C65.097 112.73 65.2696 112.783 65.489 112.844C65.7643 112.919 65.9883 112.993 66.161 113.068C66.3336 113.138 66.4806 113.245 66.602 113.39C66.728 113.535 66.7933 113.724 66.798 113.957C66.798 114.167 66.7396 114.356 66.623 114.524C66.5063 114.692 66.3406 114.825 66.126 114.923C65.916 115.016 65.6733 115.063 65.398 115.063ZM71.4324 111.094C71.8991 111.094 72.2771 111.236 72.5664 111.521C72.8557 111.801 73.0004 112.207 73.0004 112.739V115H72.3704V112.83C72.3704 112.447 72.2747 112.156 72.0834 111.955C71.8921 111.75 71.6307 111.647 71.2994 111.647C70.9634 111.647 70.6951 111.752 70.4944 111.962C70.2984 112.172 70.2004 112.478 70.2004 112.879V115H69.5634V111.164H70.2004V111.71C70.3264 111.514 70.4967 111.362 70.7114 111.255C70.9307 111.148 71.1711 111.094 71.4324 111.094ZM74.37 110.541C74.2486 110.541 74.146 110.499 74.062 110.415C73.978 110.331 73.936 110.228 73.936 110.107C73.936 109.986 73.978 109.883 74.062 109.799C74.146 109.715 74.2486 109.673 74.37 109.673C74.4866 109.673 74.5846 109.715 74.664 109.799C74.748 109.883 74.79 109.986 74.79 110.107C74.79 110.228 74.748 110.331 74.664 110.415C74.5846 110.499 74.4866 110.541 74.37 110.541ZM74.678 111.164V115H74.041V111.164H74.678ZM75.5256 113.075C75.5256 112.678 75.6049 112.333 75.7636 112.039C75.9223 111.74 76.1416 111.509 76.4216 111.346C76.7063 111.183 77.0306 111.101 77.3946 111.101C77.8659 111.101 78.2533 111.215 78.5566 111.444C78.8646 111.673 79.0676 111.99 79.1656 112.396H78.4796C78.4143 112.163 78.2859 111.978 78.0946 111.843C77.9079 111.708 77.6746 111.64 77.3946 111.64C77.0306 111.64 76.7366 111.766 76.5126 112.018C76.2886 112.265 76.1766 112.618 76.1766 113.075C76.1766 113.537 76.2886 113.894 76.5126 114.146C76.7366 114.398 77.0306 114.524 77.3946 114.524C77.6746 114.524 77.9079 114.459 78.0946 114.328C78.2813 114.197 78.4096 114.011 78.4796 113.768H79.1656C79.0629 114.16 78.8576 114.475 78.5496 114.713C78.2416 114.946 77.8566 115.063 77.3946 115.063C77.0306 115.063 76.7063 114.981 76.4216 114.818C76.1416 114.655 75.9223 114.424 75.7636 114.125C75.6049 113.826 75.5256 113.476 75.5256 113.075ZM83.5156 112.935C83.5156 113.056 83.5086 113.185 83.4946 113.32H80.4286C80.4519 113.698 80.5802 113.994 80.8136 114.209C81.0516 114.419 81.3386 114.524 81.6746 114.524C81.9499 114.524 82.1786 114.461 82.3606 114.335C82.5472 114.204 82.6779 114.032 82.7526 113.817H83.4386C83.3359 114.186 83.1306 114.487 82.8226 114.72C82.5146 114.949 82.1319 115.063 81.6746 115.063C81.3106 115.063 80.9839 114.981 80.6946 114.818C80.4099 114.655 80.1859 114.424 80.0226 114.125C79.8592 113.822 79.7776 113.472 79.7776 113.075C79.7776 112.678 79.8569 112.331 80.0156 112.032C80.1742 111.733 80.3959 111.505 80.6806 111.346C80.9699 111.183 81.3012 111.101 81.6746 111.101C82.0386 111.101 82.3606 111.18 82.6406 111.339C82.9206 111.498 83.1352 111.717 83.2846 111.997C83.4386 112.272 83.5156 112.585 83.5156 112.935ZM82.8576 112.802C82.8576 112.559 82.8039 112.352 82.6966 112.179C82.5892 112.002 82.4422 111.869 82.2556 111.78C82.0736 111.687 81.8706 111.64 81.6466 111.64C81.3246 111.64 81.0492 111.743 80.8206 111.948C80.5966 112.153 80.4682 112.438 80.4356 112.802H82.8576ZM86.9996 111.689V113.95C86.9996 114.137 87.0393 114.27 87.1186 114.349C87.1979 114.424 87.3356 114.461 87.5316 114.461H88.0006V115H87.4266C87.0719 115 86.8059 114.918 86.6286 114.755C86.4513 114.592 86.3626 114.323 86.3626 113.95V111.689H85.8656V111.164H86.3626V110.198H86.9996V111.164H88.0006V111.689H86.9996ZM90.4454 115.063C90.0861 115.063 89.7594 114.981 89.4654 114.818C89.1761 114.655 88.9474 114.424 88.7794 114.125C88.6161 113.822 88.5344 113.472 88.5344 113.075C88.5344 112.683 88.6184 112.338 88.7864 112.039C88.9591 111.736 89.1924 111.505 89.4864 111.346C89.7804 111.183 90.1094 111.101 90.4734 111.101C90.8374 111.101 91.1664 111.183 91.4604 111.346C91.7544 111.505 91.9854 111.733 92.1534 112.032C92.3261 112.331 92.4124 112.678 92.4124 113.075C92.4124 113.472 92.3237 113.822 92.1464 114.125C91.9737 114.424 91.7381 114.655 91.4394 114.818C91.1407 114.981 90.8094 115.063 90.4454 115.063ZM90.4454 114.503C90.6741 114.503 90.8887 114.449 91.0894 114.342C91.2901 114.235 91.4511 114.074 91.5724 113.859C91.6984 113.644 91.7614 113.383 91.7614 113.075C91.7614 112.767 91.7007 112.506 91.5794 112.291C91.4581 112.076 91.2994 111.918 91.1034 111.815C90.9074 111.708 90.6951 111.654 90.4664 111.654C90.2331 111.654 90.0184 111.708 89.8224 111.815C89.6311 111.918 89.4771 112.076 89.3604 112.291C89.2437 112.506 89.1854 112.767 89.1854 113.075C89.1854 113.388 89.2414 113.651 89.3534 113.866C89.4701 114.081 89.6241 114.242 89.8154 114.349C90.0067 114.452 90.2167 114.503 90.4454 114.503ZM99.7291 111.094C100.028 111.094 100.294 111.157 100.527 111.283C100.76 111.404 100.945 111.589 101.08 111.836C101.215 112.083 101.283 112.384 101.283 112.739V115H100.653V112.83C100.653 112.447 100.557 112.156 100.366 111.955C100.179 111.75 99.9251 111.647 99.6031 111.647C99.2718 111.647 99.0081 111.754 98.8121 111.969C98.6161 112.179 98.5181 112.485 98.5181 112.886V115H97.8881V112.83C97.8881 112.447 97.7925 112.156 97.6011 111.955C97.4145 111.75 97.1601 111.647 96.8381 111.647C96.5068 111.647 96.2431 111.754 96.0471 111.969C95.8511 112.179 95.7531 112.485 95.7531 112.886V115H95.1161V111.164H95.7531V111.717C95.8791 111.516 96.0471 111.362 96.2571 111.255C96.4718 111.148 96.7075 111.094 96.9641 111.094C97.2861 111.094 97.5708 111.166 97.8181 111.311C98.0655 111.456 98.2498 111.668 98.3711 111.948C98.4785 111.677 98.6558 111.467 98.9031 111.318C99.1505 111.169 99.4258 111.094 99.7291 111.094ZM105.828 112.935C105.828 113.056 105.821 113.185 105.807 113.32H102.741C102.764 113.698 102.893 113.994 103.126 114.209C103.364 114.419 103.651 114.524 103.987 114.524C104.262 114.524 104.491 114.461 104.673 114.335C104.86 114.204 104.99 114.032 105.065 113.817H105.751C105.648 114.186 105.443 114.487 105.135 114.72C104.827 114.949 104.444 115.063 103.987 115.063C103.623 115.063 103.296 114.981 103.007 114.818C102.722 114.655 102.498 114.424 102.335 114.125C102.172 113.822 102.09 113.472 102.09 113.075C102.09 112.678 102.169 112.331 102.328 112.032C102.487 111.733 102.708 111.505 102.993 111.346C103.282 111.183 103.614 111.101 103.987 111.101C104.351 111.101 104.673 111.18 104.953 111.339C105.233 111.498 105.448 111.717 105.597 111.997C105.751 112.272 105.828 112.585 105.828 112.935ZM105.17 112.802C105.17 112.559 105.116 112.352 105.009 112.179C104.902 112.002 104.755 111.869 104.568 111.78C104.386 111.687 104.183 111.64 103.959 111.64C103.637 111.64 103.362 111.743 103.133 111.948C102.909 112.153 102.781 112.438 102.748 112.802H105.17ZM110.169 112.935C110.169 113.056 110.162 113.185 110.148 113.32H107.082C107.105 113.698 107.234 113.994 107.467 114.209C107.705 114.419 107.992 114.524 108.328 114.524C108.603 114.524 108.832 114.461 109.014 114.335C109.201 114.204 109.331 114.032 109.406 113.817H110.092C109.989 114.186 109.784 114.487 109.476 114.72C109.168 114.949 108.785 115.063 108.328 115.063C107.964 115.063 107.637 114.981 107.348 114.818C107.063 114.655 106.839 114.424 106.676 114.125C106.513 113.822 106.431 113.472 106.431 113.075C106.431 112.678 106.51 112.331 106.669 112.032C106.828 111.733 107.049 111.505 107.334 111.346C107.623 111.183 107.955 111.101 108.328 111.101C108.692 111.101 109.014 111.18 109.294 111.339C109.574 111.498 109.789 111.717 109.938 111.997C110.092 112.272 110.169 112.585 110.169 112.935ZM109.511 112.802C109.511 112.559 109.457 112.352 109.35 112.179C109.243 112.002 109.096 111.869 108.909 111.78C108.727 111.687 108.524 111.64 108.3 111.64C107.978 111.64 107.703 111.743 107.474 111.948C107.25 112.153 107.122 112.438 107.089 112.802H109.511ZM111.787 111.689V113.95C111.787 114.137 111.826 114.27 111.906 114.349C111.985 114.424 112.123 114.461 112.319 114.461H112.788V115H112.214C111.859 115 111.593 114.918 111.416 114.755C111.238 114.592 111.15 114.323 111.15 113.95V111.689H110.653V111.164H111.15V110.198H111.787V111.164H112.788V111.689H111.787ZM118.73 111.164L116.42 116.806H115.762L116.518 114.958L114.971 111.164H115.678L116.882 114.272L118.072 111.164H118.73ZM121.043 115.063C120.684 115.063 120.357 114.981 120.063 114.818C119.774 114.655 119.545 114.424 119.377 114.125C119.214 113.822 119.132 113.472 119.132 113.075C119.132 112.683 119.216 112.338 119.384 112.039C119.557 111.736 119.79 111.505 120.084 111.346C120.378 111.183 120.707 111.101 121.071 111.101C121.435 111.101 121.764 111.183 122.058 111.346C122.352 111.505 122.583 111.733 122.751 112.032C122.924 112.331 123.01 112.678 123.01 113.075C123.01 113.472 122.921 113.822 122.744 114.125C122.571 114.424 122.336 114.655 122.037 114.818C121.738 114.981 121.407 115.063 121.043 115.063ZM121.043 114.503C121.272 114.503 121.486 114.449 121.687 114.342C121.888 114.235 122.049 114.074 122.17 113.859C122.296 113.644 122.359 113.383 122.359 113.075C122.359 112.767 122.298 112.506 122.177 112.291C122.056 112.076 121.897 111.918 121.701 111.815C121.505 111.708 121.293 111.654 121.064 111.654C120.831 111.654 120.616 111.708 120.42 111.815C120.229 111.918 120.075 112.076 119.958 112.291C119.841 112.506 119.783 112.767 119.783 113.075C119.783 113.388 119.839 113.651 119.951 113.866C120.068 114.081 120.222 114.242 120.413 114.349C120.604 114.452 120.814 114.503 121.043 114.503ZM127.25 111.164V115H126.613V114.433C126.491 114.629 126.321 114.783 126.102 114.895C125.887 115.002 125.649 115.056 125.388 115.056C125.089 115.056 124.821 114.995 124.583 114.874C124.345 114.748 124.156 114.561 124.016 114.314C123.88 114.067 123.813 113.766 123.813 113.411V111.164H124.443V113.327C124.443 113.705 124.538 113.997 124.73 114.202C124.921 114.403 125.182 114.503 125.514 114.503C125.854 114.503 126.123 114.398 126.319 114.188C126.515 113.978 126.613 113.672 126.613 113.271V111.164H127.25ZM129.151 110.121L129.074 113.621H128.542L128.465 110.121H129.151ZM128.836 115.042C128.715 115.042 128.612 115 128.528 114.916C128.444 114.832 128.402 114.729 128.402 114.608C128.402 114.487 128.444 114.384 128.528 114.3C128.612 114.216 128.715 114.174 128.836 114.174C128.953 114.174 129.051 114.216 129.13 114.3C129.214 114.384 129.256 114.487 129.256 114.608C129.256 114.729 129.214 114.832 129.13 114.916C129.051 115 128.953 115.042 128.836 115.042Z" fill="black"/>
</svg>
